<?xml version="1.0" encoding="UTF-8" standalone="no"?>
<svg xmlns="http://www.w3.org/2000/svg" viewBox="0 0 100 47.24">
	<defs>
		<style>
			.cls-1{fill:#fc020d;}.cls-1,.cls-2{fill-rule:evenodd;}.cls-2{fill:#fff;}
		</style>
	</defs>
	<title>
		logo-w
	</title>
	<g id="Layer_2" data-name="Layer 2">
		<g id="Layer_1-2" data-name="Layer 1">
			<polygon class="cls-1" points="92.13 32.09 92.13 25.8 89.49 25.8 89.49 23.49 87.22 23.49 87.22 14.56 80.36 14.56 80.36 26.87 78.49 26.87 78.49 28.84 77.78 28.84 77.78 25.58 76.31 25.58 76.31 22.23 70.48 22.23 70.48 11.7 68.68 11.7 68.68 10.78 67.29 10.78 67.29 11.7 65.05 11.7 65.05 28.84 64.6 28.84 64.6 27.81 63.58 27.81 63.58 26.2 62.29 26.2 62.29 5.27 61.13 5.27 61.13 4.29 60.51 4.29 60.51 0 59.71 0 59.71 4.29 58.73 4.29 58.73 5.27 57.3 5.27 57.3 15.31 56.23 15.31 56.23 14.1 55.52 14.1 55.52 13.21 54.85 13.21 54.85 14.1 54.14 14.1 54.14 15.31 53.3 15.31 53.3 25.26 52.36 25.26 52.36 22.09 50.58 22.09 50.58 20.8 49.16 20.8 49.16 18.88 48.94 18.88 48.94 17.85 47.24 17.85 47.24 18.88 45.95 18.88 45.95 25.58 43.73 25.58 43.73 21.38 42.88 21.38 42.88 19.86 41.15 19.86 41.15 20.84 40.21 20.84 40.21 24.19 39.1 24.19 39.1 25.85 36.34 25.85 36.34 25.04 33.85 25.04 33.85 24.1 31.71 24.1 31.71 25.04 26.59 25.04 26.59 28.03 24.32 28.03 24.32 28.84 22.94 28.84 22.94 27.98 20.54 27.98 20.54 28.84 17.91 28.84 17.91 26.69 17.07 26.69 17.07 26.02 16.62 26.02 16.62 23.61 15.29 23.61 15.29 26.02 14.04 26.02 14.04 26.69 12.88 26.69 12.88 28.84 12.08 28.84 12.08 27.09 11.1 27.09 11.1 26.33 9.85 26.33 9.85 27.09 8.56 27.09 8.56 28.84 6.03 28.84 6.03 32.09 0 32.09 0 33.87 100 33.87 100 32.09 92.13 32.09" />
			<path class="cls-2" d="M3.44,43.23v2.34a2.43,2.43,0,0,0,.09.86.58.58,0,0,0,.29.29,2.08,2.08,0,0,0,.79.1v.23H.32v-.23a2,2,0,0,0,.8-.11.66.66,0,0,0,.29-.28,2.52,2.52,0,0,0,.08-.86V40.09a2.56,2.56,0,0,0-.08-.86.63.63,0,0,0-.3-.28,2,2,0,0,0-.79-.11v-.23H4a4.16,4.16,0,0,1,2.61.65,2,2,0,0,1,.79,1.62,2,2,0,0,1-.51,1.4,2.59,2.59,0,0,1-1.41.8,9.53,9.53,0,0,1-2,.15Zm0-4.13h0v3.64l.31,0a1.49,1.49,0,0,0,1.17-.45,2,2,0,0,0,.41-1.4,1.93,1.93,0,0,0-.41-1.38A1.59,1.59,0,0,0,3.7,39.1Z" />
			<path class="cls-2" d="M11.17,43.2v2.37a2.82,2.82,0,0,0,.08.86.65.65,0,0,0,.3.29,2,2,0,0,0,.79.1v.23H8v-.23a2,2,0,0,0,.8-.11.71.71,0,0,0,.29-.28,2.82,2.82,0,0,0,.08-.86V40.09a2.87,2.87,0,0,0-.08-.86.63.63,0,0,0-.3-.28A2,2,0,0,0,8,38.84v-.23h3.92a8.6,8.6,0,0,1,2.24.21,2.35,2.35,0,0,1,1.16.78,2.11,2.11,0,0,1,.45,1.34,2,2,0,0,1-.67,1.54,2.81,2.81,0,0,1-1.2.58l2,2.86a4.52,4.52,0,0,0,.57.69,1,1,0,0,0,.59.21v.23H14.44L11.72,43.2Zm0-4.13h0v3.69h.36a3.86,3.86,0,0,0,1.29-.16A1.26,1.26,0,0,0,13.5,42,2.11,2.11,0,0,0,13.74,41a2,2,0,0,0-.45-1.42,2,2,0,0,0-1.45-.46Z" />
			<path class="cls-2" d="M21.91,38.49a4.19,4.19,0,0,1,4.54,4.31,4.51,4.51,0,0,1-.94,2.83A4.2,4.2,0,0,1,22,47.24a4.25,4.25,0,0,1-3.52-1.54,4.49,4.49,0,0,1-1-2.89,4.19,4.19,0,0,1,1.28-3.14,4.08,4.08,0,0,1,3.14-1.18Zm.08.4h0a1.9,1.9,0,0,0-1.76,1.19,6.22,6.22,0,0,0-.5,2.78,5.49,5.49,0,0,0,.76,3.2,1.75,1.75,0,0,0,1.48.72,1.86,1.86,0,0,0,1.08-.31,2.64,2.64,0,0,0,.85-1.28,7.15,7.15,0,0,0,.3-2.28,7.49,7.49,0,0,0-.31-2.5,2.47,2.47,0,0,0-.79-1.18A1.92,1.92,0,0,0,22,38.89Z" />
			<path class="cls-2" d="M31.57,46.82v.23H27.16v-.23h.28a1.15,1.15,0,0,0,.59-.13.58.58,0,0,0,.25-.3,2.73,2.73,0,0,0,.07-.78V40.06a3,3,0,0,0-.07-.81A.65.65,0,0,0,28,39a1.11,1.11,0,0,0-.56-.12h-.28v-.23h4.41v.23h-.28a1.26,1.26,0,0,0-.59.13.65.65,0,0,0-.26.3,2.93,2.93,0,0,0-.06.79v5.55a2.63,2.63,0,0,0,.07.81.68.68,0,0,0,.28.28,1.11,1.11,0,0,0,.56.12Z" />
			<path class="cls-2" d="M37.94,44.18l2.29-5.57h3.43v.23h-.27a1.27,1.27,0,0,0-.6.13.69.69,0,0,0-.25.3,2.64,2.64,0,0,0-.07.77v5.57a3,3,0,0,0,.07.81.68.68,0,0,0,.28.28,1.15,1.15,0,0,0,.57.12h.27v.23h-4.4v-.23h.27a1.16,1.16,0,0,0,.6-.13.69.69,0,0,0,.25-.3,2.73,2.73,0,0,0,.07-.78V39.35l-3.24,7.7h-.15l-3.29-7.64v5.94a3.86,3.86,0,0,0,0,.77.9.9,0,0,0,.35.51,1.46,1.46,0,0,0,.85.19v.23H32.12v-.23h.09a1.3,1.3,0,0,0,.52-.09.85.85,0,0,0,.37-.26,1.35,1.35,0,0,0,.19-.45c0-.05,0-.26,0-.64V40a2.59,2.59,0,0,0-.07-.8A.63.63,0,0,0,33,39a1.13,1.13,0,0,0-.56-.12h-.27v-.23h3.45Z" />
			<path class="cls-2" d="M48.82,38.49a4.19,4.19,0,0,1,4.53,4.31,4.51,4.51,0,0,1-.94,2.83,4.19,4.19,0,0,1-3.51,1.61,4.27,4.27,0,0,1-3.53-1.54,4.49,4.49,0,0,1-1-2.89,4.23,4.23,0,0,1,1.28-3.14,4.09,4.09,0,0,1,3.15-1.18Zm.07.4h0a1.9,1.9,0,0,0-1.76,1.19,6.24,6.24,0,0,0-.49,2.78,5.41,5.41,0,0,0,.76,3.2,1.72,1.72,0,0,0,1.48.72A1.83,1.83,0,0,0,50,46.47a2.58,2.58,0,0,0,.85-1.28,7.12,7.12,0,0,0,.31-2.28,7.77,7.77,0,0,0-.31-2.5,2.48,2.48,0,0,0-.8-1.18A1.92,1.92,0,0,0,48.89,38.89Z" />
			<path class="cls-2" d="M59.48,42.58a4.09,4.09,0,0,1,1.68.68,1.77,1.77,0,0,1,.7,1.46,1.93,1.93,0,0,1-.77,1.58,4.27,4.27,0,0,1-2.73.75H54.07v-.23a2,2,0,0,0,.8-.11.66.66,0,0,0,.29-.28,2.43,2.43,0,0,0,.09-.86V40.09a2.46,2.46,0,0,0-.09-.86.61.61,0,0,0-.29-.28,2.06,2.06,0,0,0-.8-.11v-.23h4a5.74,5.74,0,0,1,2.05.26,2.16,2.16,0,0,1,1,.77,1.92,1.92,0,0,1,.34,1.09A1.53,1.53,0,0,1,61,41.82a3.15,3.15,0,0,1-1.55.76Zm-2.27.31h0v3a.66.66,0,0,0,.17.51.69.69,0,0,0,.5.17,1.9,1.9,0,0,0,.92-.22,1.54,1.54,0,0,0,.65-.64,2.07,2.07,0,0,0,.22-.94,2.09,2.09,0,0,0-.27-1.06,1.57,1.57,0,0,0-.76-.66,4.28,4.28,0,0,0-1.43-.18Zm0-.48h0a3.32,3.32,0,0,0,1.31-.2,1.46,1.46,0,0,0,.64-.56,1.72,1.72,0,0,0,.22-.92,1.69,1.69,0,0,0-.22-.92,1.34,1.34,0,0,0-.63-.54,3.14,3.14,0,0,0-1.32-.18Z" />
			<path class="cls-2" d="M67,46.82v.23H62.56v-.23h.28a1.1,1.1,0,0,0,.59-.13.54.54,0,0,0,.25-.3,2.39,2.39,0,0,0,.07-.78V40.06a2.58,2.58,0,0,0-.07-.81.57.57,0,0,0-.27-.29,1.15,1.15,0,0,0-.57-.12h-.28v-.23H67v.23H66.7a1.27,1.27,0,0,0-.6.13.63.63,0,0,0-.25.3,2.42,2.42,0,0,0-.07.79v5.55a2.63,2.63,0,0,0,.07.81.68.68,0,0,0,.28.28,1.15,1.15,0,0,0,.57.12Z" />
			<path class="cls-2" d="M75.32,44.09l-.32,3H67.5v-.23h.28a1.16,1.16,0,0,0,.6-.13.63.63,0,0,0,.25-.3,2.89,2.89,0,0,0,.06-.78V40.06a3.13,3.13,0,0,0-.06-.81.65.65,0,0,0-.28-.29,1.15,1.15,0,0,0-.57-.12H67.5v-.23H72v.23h-.36a1.23,1.23,0,0,0-.59.13.6.6,0,0,0-.26.3,2.77,2.77,0,0,0-.07.79v5.37a2.71,2.71,0,0,0,.08.83.47.47,0,0,0,.29.26,2.71,2.71,0,0,0,.75.06h.71a2.38,2.38,0,0,0,1.12-.24,2.19,2.19,0,0,0,.77-.75,6.16,6.16,0,0,0,.62-1.5Z" />
			<path class="cls-2" d="M77.36,45.13a1,1,0,0,1,.74.31,1,1,0,0,1,.3.73,1,1,0,0,1-1,1,1,1,0,0,1-.73-.31,1,1,0,0,1-.3-.73,1,1,0,0,1,1-1Z" />
			<path class="cls-2" d="M85,44.18l2.29-5.57h3.44v.23h-.28a1.27,1.27,0,0,0-.6.13.62.62,0,0,0-.24.3,2.31,2.31,0,0,0-.07.77v5.57a2.63,2.63,0,0,0,.07.81.58.58,0,0,0,.28.28,1.13,1.13,0,0,0,.56.12h.28v.23H86.35v-.23h.27a1.16,1.16,0,0,0,.6-.13.63.63,0,0,0,.25-.3,2.39,2.39,0,0,0,.07-.78V39.35l-3.24,7.7h-.15l-3.28-7.64v5.94a5.52,5.52,0,0,0,0,.77.9.9,0,0,0,.35.51,1.46,1.46,0,0,0,.85.19v.23H79.21v-.23h.09a1.3,1.3,0,0,0,.52-.09.8.8,0,0,0,.37-.26,1.17,1.17,0,0,0,.19-.45c0-.05,0-.26,0-.64V40a2.59,2.59,0,0,0-.07-.8.6.6,0,0,0-.27-.28,1.2,1.2,0,0,0-.57-.12h-.27v-.23h3.45Z" />
			<path class="cls-2" d="M91.15,47.05v-.23h.28a1.22,1.22,0,0,0,.57-.11.81.81,0,0,0,.29-.32,3.54,3.54,0,0,0,0-.78V40.06a2.58,2.58,0,0,0-.07-.81A.57.57,0,0,0,92,39a1.15,1.15,0,0,0-.57-.12h-.28v-.23h3.78a6.08,6.08,0,0,1,2.43.41,3.6,3.6,0,0,1,1.71,1.53,4.91,4.91,0,0,1,.3,4,3.52,3.52,0,0,1-1.79,2,5.62,5.62,0,0,1-1.45.46,7.07,7.07,0,0,1-1.2.07Zm3.22-8h0v6.59a2.5,2.5,0,0,0,0,.64.33.33,0,0,0,.17.18,1,1,0,0,0,.48.09,1.88,1.88,0,0,0,1.59-.71,4.81,4.81,0,0,0,.75-3,5.61,5.61,0,0,0-.51-2.6,2.2,2.2,0,0,0-1-1A4.11,4.11,0,0,0,94.37,39.09Z" />
		</g>
	</g>
</svg>
